<?xml version="1.0" encoding="iso-8859-1"?>
<!-- Uploaded to: SVGRepo, www.svgrepo.com, Transformed by: SVGRepo Tools -->
<!DOCTYPE svg PUBLIC "-//W3C//DTD SVG 1.1//EN" "http://www.w3.org/Graphics/SVG/1.1/DTD/svg11.dtd">
<svg fill="#000000" version="1.1" id="Capa_1" xmlns="http://www.w3.org/2000/svg" xmlns:xlink="http://www.w3.org/1999/xlink" 
	 width="800px" height="800px" viewBox="0 0 342.501 342.501"
	 xml:space="preserve">
<g>
	<path d="M324.746,255.046c-23.868,9.791-47.735,18.972-73.439,23.256c-5.509,0.611-6.732,8.567-3.061,11.628
		c4.896,4.896,9.181,9.792,14.076,14.688c-22.644,15.3-47.736,29.988-75.888,21.42c-23.257-6.731-35.497-32.436-42.229-53.244
		c-2.448-7.956-4.284-17.747-5.508-28.764c15.3-5.508,29.376-13.464,41.617-22.644c19.584-15.301,53.244-47.124,38.556-74.664
		c-11.628-20.808-48.348-15.3-63.036-2.448c-22.032,18.36-29.376,49.572-30.6,77.112c0,4.283,0,8.567,0,12.852
		c-12.24,3.061-25.092,3.672-37.332,1.836C19.97,225.669,10.178,152.23,31.598,92.254c13.464-0.612,28.764-3.06,39.78-10.404
		c7.344-4.896,0.612-16.524-6.732-12.24c-8.568,4.896-17.748,6.732-26.928,7.956c2.448-5.508,4.896-10.404,7.956-15.3
		c7.956,0,15.912-1.224,23.868-3.06c6.732-1.836,17.136-3.672,20.196-10.404c1.836-3.672-0.612-9.18-4.896-9.18
		c-6.732,0-12.852,4.284-18.972,6.12c-3.06,0.612-6.732,1.836-10.404,1.836c9.792-12.852,21.42-23.256,34.272-29.376
		c3.06-1.836,1.224-6.732-2.448-6.12c-12.852,4.284-23.868,11.016-33.66,19.584c1.224-8.568,3.06-17.136,6.12-25.092
		c2.448-5.508-6.732-9.18-9.18-4.284c-7.344,13.464-11.016,29.376-12.24,45.288c-4.896,6.12-8.568,12.852-12.24,19.584
		c-3.06-7.344-5.508-15.3-6.732-23.256c-0.612-4.896-7.344-3.06-7.956,1.224c-1.224,13.464,2.448,27.54,6.732,40.392
		c-20.808,58.14-7.956,131.58,48.348,157.895c18.972,8.568,40.392,9.181,60.588,4.896c6.12,51.408,36.72,104.652,95.472,92.412
		c18.973-3.672,36.108-14.688,50.796-26.316c3.061,2.448,6.732,4.896,10.404,6.732c-0.612,6.12,9.18,11.016,13.464,4.284
		c12.853-19.584,25.704-39.169,36.108-59.977C335.15,260.554,330.866,252.598,324.746,255.046z M178.479,147.946
		c9.18-2.448,26.928-1.224,29.988,9.18c4.283,12.24-11.017,29.375-18.36,37.331c-13.464,15.912-31.825,28.765-52.021,36.108
		C137.474,195.069,146.654,156.514,178.479,147.946z M277.622,290.541c-2.448-1.836-4.896-1.836-6.731-0.611
		c-0.612-0.612-0.612-0.612-1.225-1.225c3.672-0.611,7.345-1.836,11.017-3.06l0,0C279.458,287.481,277.622,288.705,277.622,290.541z
		"/>
</g>
<g>
</g>
<g>
</g>
<g>
</g>
<g>
</g>
<g>
</g>
<g>
</g>
<g>
</g>
<g>
</g>
<g>
</g>
<g>
</g>
<g>
</g>
<g>
</g>
<g>
</g>
<g>
</g>
<g>
</g>
</svg>
