<?xml version="1.0" encoding="iso-8859-1"?>
<!-- Uploaded to: SVGRepo, www.svgrepo.com, Transformed by: SVGRepo Tools -->
<!DOCTYPE svg PUBLIC "-//W3C//DTD SVG 1.1//EN" "http://www.w3.org/Graphics/SVG/1.1/DTD/svg11.dtd">
<svg fill="#000000" version="1.1" id="Capa_1" xmlns="http://www.w3.org/2000/svg" xmlns:xlink="http://www.w3.org/1999/xlink" 
	 width="800px" height="800px" viewBox="0 0 400.015 400.014"
	 xml:space="preserve">
<g>
	<path d="M399.637,337.678c-9.792-45.288-39.168-82.008-58.14-124.235c-2.448-4.896-9.792-4.284-12.24,0
		c-7.956,14.688-18.359,28.151-28.151,41.615c-15.3-14.688-39.168-36.72-61.2-25.704c-23.256,11.629-32.437,33.66-58.14,37.944
		c15.3-39.78,50.184-93.635,19.584-131.58c-42.84-53.244-88.128-13.464-135.252,6.12c4.284-26.316,20.808-45.9,40.392-64.872
		c3.06-3.06,0.612-6.732-3.06-6.732c-2.448-6.12-9.792-11.016-14.688-15.3c-7.344-6.12-15.912-11.628-24.48-17.136
		c-3.672-1.836-6.12,1.224-5.508,4.284C18.362,74.519-32.434,157.139,27.542,196.919c16.524,11.015,38.556-0.612,53.244-9.18
		c17.136-10.404,69.156-47.124,72.216-2.448c3.06,44.063-63.036,103.427-26.928,145.043c15.3,17.748,42.228,11.628,58.752,1.224
		c28.152-18.359,52.019-68.544,85.068-28.764c0,0,0,0,0.611,0.612c-14.076,13.464-21.42,31.212-29.987,48.348
		c-2.448,4.896,0.611,11.016,6.119,11.016c50.185-0.611,99.757-7.955,148.717-16.523
		C399.025,346.247,400.861,341.35,399.637,337.678z M165.242,326.663c-48.348,19.584-31.212-44.676-23.256-64.26
		c9.18-23.868,22.032-46.513,24.48-72.216c1.836-15.912-9.792-34.272-25.092-38.556c-18.972-4.896-36.108,4.896-51.408,14.688
		c-23.256,14.688-49.572,35.496-68.544,3.06c-23.256-39.78,16.524-93.024,44.676-119.952c5.508,4.284,11.016,8.568,15.912,13.464
		c4.284,4.284,7.344,10.404,12.24,14.076c-23.868,20.196-39.78,42.84-41.616,75.276c0,4.284,4.284,7.344,7.956,6.12
		c42.228-14.688,84.456-59.976,126.684-19.584c36.719,34.272-9.18,97.92-20.808,134.027c-1.224,4.284,1.836,7.956,6.12,7.956
		c20.809,0.612,36.108-6.731,51.408-20.808c6.732-6.12,12.24-12.853,19.584-18.36c17.136-11.016,39.168,12.853,50.184,23.868
		l-0.611,0.612c-4.896,7.344,6.731,14.076,12.24,6.731c9.791-14.076,20.195-27.54,29.987-41.616
		c16.524,34.272,39.168,64.872,48.96,101.593c-41.616,7.344-83.844,13.464-126.684,14.688c6.12-13.464,12.852-26.315,22.032-38.556
		c1.224-1.836,1.224-4.284-0.612-5.508c2.448-1.836,4.284-5.509,1.836-8.568C236.845,238.535,206.857,309.527,165.242,326.663z"/>
</g>
<g>
</g>
<g>
</g>
<g>
</g>
<g>
</g>
<g>
</g>
<g>
</g>
<g>
</g>
<g>
</g>
<g>
</g>
<g>
</g>
<g>
</g>
<g>
</g>
<g>
</g>
<g>
</g>
<g>
</g>
</svg>
